<?xml version="1.0" encoding="utf-8"?>
<!-- Generator: Adobe Illustrator 19.1.0, SVG Export Plug-In . SVG Version: 6.00 Build 0)  -->
<svg version="1.1" id="Layer_1" xmlns="http://www.w3.org/2000/svg" xmlns:xlink="http://www.w3.org/1999/xlink" x="0px" y="0px"
	 viewBox="-165 193 334 446" style="enable-background:new -255 129 512 512;" xml:space="preserve">
<style type="text/css">
	.st0{fill:#FFEAB5;}
	.st1{fill:#FFDB8A;}
	.st2{fill:#5C2F79;}
	.st3{fill:#5C2F79;stroke:#000000;stroke-width:13;stroke-linecap:round;stroke-linejoin:round;stroke-miterlimit:10;}
	.st4{fill:#79439E;stroke:#000000;stroke-width:13;stroke-miterlimit:10;}
</style>
<polyline class="st0" points="112.6,200.4 160.7,200.3 161.2,496.1 57.5,601 -159,601.4 -159.8,200.9 157.5,200.8 "/>
<polygon class="st1" points="110,550 62.7,598 62.7,501.1 158,501.1 "/>
<path d="M168.4,200.3c0-2-0.8-3.9-2.2-5.3c-1.4-1.4-3.3-2.2-5.3-2.2c0,0,0,0,0,0l-48.1,0.1c-4.1,0-7.5,3.4-7.5,7.5
	c0,4.1,3.4,7.5,7.5,7.5c0,0,0,0,0,0l40.6-0.1l0.5,281.4l-80.6,0.2c-13,0-23.5,10.6-23.5,23.6l0.1,86.6c0,4.1,3.4,7.5,7.5,7.5
	c0,0,0,0,0,0c4.1,0,7.5-3.4,7.5-7.5l-0.1-86.6c0-4.7,3.8-8.5,8.5-8.5l70-0.1l-89,89.3l-205.7,0.4l-0.7-385.5l309.7-0.6
	c4.1,0,7.5-3.4,7.5-7.5c0-4.1-3.4-7-7.5-7c0,0,0-0.5,0-0.5l-317.3,0.6c-4.1,0-7.5,3.4-7.5,7.5l0.8,400.5c0,4.1,3.4,7.5,7.5,7.5
	c0,0,0,0,0,0l216.3-0.4c0.1,0,0.1,0,0.2,0c0.2,0,0.4,0,0.6,0c0.1,0,0.2,0,0.4-0.1c0.1,0,0.2,0,0.4-0.1c0.1,0,0.3-0.1,0.4-0.1
	c0.1,0,0.2,0,0.3-0.1c0.1,0,0.3-0.1,0.4-0.1c0.1,0,0.2-0.1,0.3-0.1c0.1-0.1,0.2-0.1,0.4-0.2c0.1,0,0.2-0.1,0.3-0.1
	c0.1-0.1,0.2-0.1,0.4-0.2c0.1-0.1,0.2-0.1,0.3-0.2c0.1-0.1,0.3-0.2,0.4-0.3c0.1-0.1,0.1-0.1,0.2-0.1c0.2-0.2,0.4-0.3,0.6-0.5
	L166.7,502c0,0,0,0,0-0.1c0.2-0.2,0.4-0.5,0.6-0.7c0.1-0.1,0.1-0.1,0.2-0.2c0.2-0.3,0.4-0.5,0.5-0.8c0,0,0-0.1,0-0.1
	c0.1-0.3,0.3-0.5,0.4-0.8c0-0.1,0.1-0.1,0.1-0.2c0.1-0.3,0.2-0.6,0.3-1c0,0,0,0,0-0.1c0.1-0.3,0.1-0.6,0.1-0.9c0-0.1,0-0.2,0-0.3
	c0-0.1,0-0.2,0-0.2L168.4,200.3z"/>
<path d="M113.1,314.2C113.1,314.2,113.1,314.2,113.1,314.2L23,314.6c-4.1,0-7.5,3.4-7.5,7.5c0,4.1,3.4,7.5,7.5,7.5
	c0,0,13.8,0,13.8,0l76.3-0.4c4.1,0,7.5-3.4,7.5-7.5C120.6,317.6,117.2,314.2,113.1,314.2z"/>
<path d="M-21.1,314.2C-21.1,314.2-21.1,314.2-21.1,314.2l-90.1,0.4c-4.1,0-7.5,3.4-7.5,7.5c0,4.1,3.4,7.5,7.5,7.5c0,0,13.8,0,13.8,0
	l76.3-0.4c4.1,0,7.5-3.4,7.5-7.5C-13.6,317.6-16.9,314.2-21.1,314.2z"/>
<path class="st2" d="M113.1,345.5C113.1,345.5,113.1,345.5,113.1,345.5L23,346c-4.1,0-7.5,3.4-7.5,7.5c0,4.1,3.4,7.5,7.5,7.5
	c0,0,13.8,0,13.8,0l76.3-0.4c4.1,0,7.5-3.4,7.5-7.5C120.6,348.9,117.2,345.5,113.1,345.5z"/>
<path class="st2" d="M-21.1,345.5C-21.1,345.5-21.1,345.5-21.1,345.5l-90.1,0.4c-4.1,0-7.5,3.4-7.5,7.5c0,4.1,3.4,7.5,7.5,7.5
	c0,0,13.8,0,13.8,0l76.3-0.4c4.1,0,7.5-3.4,7.5-7.5C-13.6,348.9-16.9,345.5-21.1,345.5z"/>
<path class="st2" d="M-21.1,415.1C-21.1,415.1-21.1,415.1-21.1,415.1l-90.1,0.4c-4.1,0-7.5,3.4-7.5,7.5c0,4.1,3.4,7.5,7.5,7.5
	c0,0,13.8,0,13.8,0l76.3-0.4c4.1,0,7.5-3.4,7.5-7.5C-13.6,418.5-16.9,415.1-21.1,415.1z"/>
<path class="st2" d="M113.2,314.2C113.1,314.2,113.1,314.2,113.2,314.2l-224.3,0.4c-4.1,0-7.5,3.4-7.5,7.5c0,4.1,3.4,7.5,7.5,7.5
	c0,0,0,0,0,0l224.3-0.4c4.1,0,7.5-3.4,7.5-7.5C120.7,317.6,117.3,314.2,113.2,314.2z"/>
<path class="st2" d="M113.2,378.3C113.2,378.3,113.2,378.3,113.2,378.3l-224.3,0.4c-4.1,0-7.5,3.4-7.5,7.5c0,4.1,3.4,7.5,7.5,7.5
	c0,0,0,0,0,0l224.3-0.4c4.1,0,7.5-3.4,7.5-7.5C120.7,381.7,117.4,378.3,113.2,378.3z"/>
<path class="st2" d="M-73.7,279.3c1.2,1,2.7,1.4,4.1,1.4c2,0,4-0.9,5.3-2.6l15.6-20.1l15.6,20.1c1.3,1.6,3.2,2.6,5.3,2.6
	c2.1,0,4-1,5.3-2.6L-6.8,258l15.6,20.1c1.3,1.6,3.2,2.6,5.3,2.6s4-1,5.3-2.6L35,258l15.6,20.1c2.3,2.9,6.5,3.5,9.4,1.2
	c2.9-2.3,3.5-6.5,1.2-9.4l-20.9-26.9c-1.3-1.6-3.2-2.6-5.3-2.6c-2.1,0-4,1-5.3,2.6L14.1,263l-15.6-20.1c-1.3-1.6-3.2-2.6-5.3-2.6
	c-2.1,0-4,1-5.3,2.6L-27.7,263l-15.6-20.1c-1.3-1.6-3.2-2.6-5.3-2.6c-2.1,0-4,1-5.3,2.6l-20.9,26.9C-77.2,272.8-76.7,277-73.7,279.3
	z"/>
<polygon class="st3" points="-19.4,631.7 -51.7,608.8 -83.9,631.7 -83.9,527.1 -19.4,527.1 "/>
<circle class="st4" cx="-51.7" cy="517.2" r="52.4"/>
<circle class="st3" cx="-51.7" cy="517.2" r="26.4"/>
</svg>
