<?xml version="1.0" encoding="utf-8"?>
<!-- Generator: Adobe Illustrator 19.1.0, SVG Export Plug-In . SVG Version: 6.00 Build 0)  -->
<svg version="1.1" id="Layer_1" xmlns="http://www.w3.org/2000/svg" xmlns:xlink="http://www.w3.org/1999/xlink" x="0px" y="0px"
	 viewBox="-207 193 385 385" style="enable-background:new -255 129 512 512;" xml:space="preserve">
<style type="text/css">
	.st0{fill:#79439E;stroke:#000000;stroke-width:11;stroke-linecap:round;stroke-linejoin:round;stroke-miterlimit:10;}
	.st1{fill:#5C2F79;stroke:#000000;stroke-width:11;stroke-linecap:round;stroke-linejoin:round;stroke-miterlimit:10;}
	.st2{fill:#FFDB8A;stroke:#000000;stroke-width:11;stroke-miterlimit:10;}
	.st3{fill:#FFEAB5;stroke:#000000;stroke-width:3.5;stroke-miterlimit:10;}
	.st4{fill:#79439E;}
	.st5{fill:#5C2F79;}
</style>
<polygon class="st0" points="-16,200 15.2,228.1 54.8,214.1 72.9,252 114.8,254.2 117,296.1 154.9,314.2 140.9,353.8 169,385
	140.9,416.2 154.9,455.8 117,473.9 114.8,515.8 72.9,518 54.8,555.9 15.2,541.9 -16,570 -47.2,541.9 -86.8,555.9 -104.9,518
	-146.8,515.8 -149,473.9 -186.9,455.8 -172.9,416.2 -201,385 -172.9,353.8 -186.9,314.2 -149,296.1 -146.8,254.2 -104.9,252
	-86.8,214.1 -47.2,228.1 "/>
<polyline class="st1" points="-16,200 15.2,228.1 54.8,214.1 72.9,252 114.8,254.2 117,296.1 154.9,314.2 140.9,353.8 169,385
	140.9,416.2 154.9,455.8 117,473.9 114.8,515.8 72.9,518 54.8,555.9 15.2,541.9 -16,570 "/>
<circle class="st2" cx="-16" cy="385" r="145.5"/>
<path class="st3" d="M-16,526.8c-78.4,0-141.8-63.4-141.8-141.8S-94.3,243.2-16,243.2"/>
<g>
	<g>
		<g>
			<polygon class="st4" points="-16,430 -74.8,364.1 -134.2,364.1 -16,505.1 -16,505.1 			"/>
			<polygon class="st4" points="102.3,364.1 42.9,364.1 42.9,364.1 42.9,364.1 -16,430 -16,505.1 -16,505.1 -16,505.1 			"/>
		</g>
	</g>
	<g>
		<g>
			<polygon class="st5" points="-74.8,364.1 -16,505.1 42.9,364.1 			"/>
			<polygon class="st5" points="-45.2,300 -96.1,300 -134.2,364.1 -74.8,364.1 -74.8,364.1 -16,332.1 			"/>
			<polygon class="st5" points="64.1,300 13.2,300 13.2,300 -16,332.1 42.9,364.1 42.9,364.1 102.3,364.1 			"/>
		</g>
	</g>
	<polygon class="st4" points="-45.2,300 -74.8,364.1 42.9,364.1 13.2,300 	"/>
	<path d="M105.9,366.3C106,366.3,106,366.3,105.9,366.3c0.1-0.1,0.1-0.2,0.2-0.3c0-0.1,0.1-0.2,0.1-0.2c0-0.1,0.1-0.2,0.1-0.3
		c0-0.1,0.1-0.2,0.1-0.2c0-0.1,0.1-0.3,0.1-0.4c0-0.1,0-0.1,0-0.2c0-0.2,0-0.4,0-0.5c0,0,0,0,0-0.1c0-0.2,0-0.4,0-0.6
		c0-0.1,0-0.1,0-0.2c0-0.1-0.1-0.3-0.1-0.4c0-0.1-0.1-0.1-0.1-0.2c0-0.1-0.1-0.2-0.1-0.4c0,0,0,0,0-0.1c0-0.1-0.1-0.1-0.1-0.2
		c0-0.1-0.1-0.2-0.1-0.2l-38.2-64.1c-0.8-1.3-2.1-2-3.7-2H-96.1c-1.5,0-2.9,0.8-3.7,2l-38.2,64.1c0,0.1-0.1,0.1-0.1,0.2
		c0,0.1-0.1,0.1-0.1,0.2c0,0,0,0,0,0.1c-0.1,0.1-0.1,0.2-0.1,0.4c0,0.1-0.1,0.1-0.1,0.2c0,0.1-0.1,0.3-0.1,0.4c0,0.1,0,0.1,0,0.2
		c0,0.2,0,0.4,0,0.6c0,0,0,0,0,0.1c0,0.2,0,0.4,0,0.5c0,0.1,0,0.1,0,0.2c0,0.1,0,0.3,0.1,0.4c0,0.1,0.1,0.2,0.1,0.2
		c0,0.1,0.1,0.2,0.1,0.3c0,0.1,0.1,0.2,0.1,0.2c0,0.1,0.1,0.2,0.1,0.2s0,0,0,0.1s0.1,0.2,0.1,0.2c0.1,0.1,0.1,0.2,0.2,0.3
		c0,0,0,0.1,0.1,0.1l105.3,125.6c1.6,1.9,4.2,2,6,0.5s2-4.2,0.5-6l-99.5-118.6h47.5l47,112.6L-59.3,447c-1.6-1.9-4.2-2-6-0.5
		c-1.9,1.6-2,4.2-0.5,6l46.4,55.4l0,0l0,0c0,0,0,0,0,0.1c0.1,0.1,0.2,0.2,0.2,0.2l0.1,0.1l0,0l0,0c0.1,0.1,0.1,0.1,0.2,0.2
		c0,0,0.1,0,0.1,0.1l0.1,0.1c0,0,0.1,0,0.1,0.1c0,0,0.1,0,0.1,0.1l0,0c0.1,0.1,0.2,0.1,0.3,0.2h0.1h0.1c0.1,0,0.1,0,0.2,0.1
		c0.1,0,0.2,0.1,0.3,0.1h0.1c0.1,0,0.1,0,0.2,0c0.1,0,0.2,0,0.3,0.1h0.1h0.1c0.2,0,0.3,0,0.5,0l0,0l0,0l0,0l0,0l0,0l0,0
		c0.2,0,0.3,0,0.5,0h0.1h0.1c0.1,0,0.2,0,0.3-0.1c0.1,0,0.1,0,0.2,0h0.1c0.1,0,0.2-0.1,0.3-0.1c0,0,0.1,0,0.1-0.1h0.1h0.1
		c0.1-0.1,0.2-0.1,0.3-0.2l0,0c0,0,0.1,0,0.1-0.1c0,0,0.1,0,0.1-0.1l0.1-0.1c0,0,0.1,0,0.1-0.1c0.1-0.1,0.1-0.1,0.2-0.2l0,0l0,0
		l0.1-0.1c0.1-0.1,0.2-0.2,0.2-0.3c0,0,0,0,0-0.1l0,0l0,0l118.2-140.9c0,0,0-0.1,0.1-0.1c0.1-0.1,0.1-0.2,0.2-0.3
		C105.8,366.5,105.9,366.4,105.9,366.3z M94.8,359.9H45.6l-1-2.1L20,304.3h41.8L94.8,359.9z M-126.7,359.9l33.1-55.5h41.8
		l-25.4,55.3c-1,2.1-0.1,4.7,2,5.7s4.7,0.1,5.7-2l27.1-58.8h53L36.2,360H-68.1l9.6-20.8c0.3-0.7,0.4-1.4,0.4-2
		c-0.1-1.5-1-2.9-2.4-3.6c-0.3-0.1-0.6-0.2-0.9-0.3c-1.8-0.4-3.6,0.4-4.6,1.9c-0.1,0.1-0.1,0.3-0.2,0.4L-77.5,360L-126.7,359.9
		L-126.7,359.9z M-1.3,481l46.5-111.9c0.9-2.1-0.1-4.7-2.3-5.6c-2.1-0.9-4.7,0.1-5.6,2.3L-16,494.1l-52.4-125.6H36.4l-7.9,18.9
		c-0.9,2.1,0.1,4.7,2.3,5.6c2.1,0.9,4.7-0.1,5.6-2.3l9.3-22.2h47.5L-1.3,481z"/>
</g>
</svg>
