<?xml version="1.0" encoding="utf-8"?>
<!-- Generator: Adobe Illustrator 19.1.0, SVG Export Plug-In . SVG Version: 6.00 Build 0)  -->
<svg version="1.1" id="Layer_1" xmlns="http://www.w3.org/2000/svg" xmlns:xlink="http://www.w3.org/1999/xlink" x="0px" y="0px"
	 viewBox="-182.7 210 350.7 348" style="enable-background:new -182.7 210 350.7 348;" xml:space="preserve">
<circle style="fill:#5C2F79;stroke:#000000;stroke-width:11;stroke-linecap:round;stroke-linejoin:round;stroke-miterlimit:10;" cx="-6.7" cy="385" r="168.6"/>
<path style="fill:#79439E;stroke:#000000;stroke-width:3;stroke-linecap:round;stroke-linejoin:round;stroke-miterlimit:10;" d="
	M-6.7,549.3C-97.5,549.3-171,475.8-171,385S-97.4,220.7-6.7,220.7"/>
<circle style="fill:#FFDB8A;stroke:#000000;stroke-width:11;stroke-miterlimit:10;" cx="-6.8" cy="385" r="145.5"/>
<path style="fill:#FFEAB5;stroke:#000000;stroke-width:3.5;stroke-miterlimit:10;" d="M-6.8,526.8c-78.4,0-141.8-63.4-141.8-141.8
	S-85,243.2-6.8,243.2"/>
<g>
	<g>
		<g>
			<polygon style="fill:#79439E;" points="-6.8,430 -65.5,364.1 -125,364.1 -6.8,505.1 -6.8,505.1 			"/>
			<polygon style="fill:#79439E;" points="111.5,364.1 52.1,364.1 52.1,364.1 52.1,364.1 -6.8,430 -6.8,505.1 -6.8,505.1 
				-6.8,505.1 			"/>
		</g>
	</g>
	<g>
		<g>
			<polygon style="fill:#5C2F79;" points="-65.5,364.1 -6.8,505.1 52.1,364.1 			"/>
			<polygon style="fill:#5C2F79;" points="-36,300 -86.9,300 -125,364.1 -65.5,364.1 -65.5,364.1 -6.8,332.1 			"/>
			<polygon style="fill:#5C2F79;" points="73.3,300 22.5,300 22.5,300 -6.8,332.1 52.1,364.1 52.1,364.1 111.5,364.1 			"/>
		</g>
	</g>
	<polygon style="fill:#79439E;" points="-36,300 -65.5,364.1 52.1,364.1 22.5,300 	"/>
	<path d="M115.2,366.3C115.3,366.3,115.3,366.3,115.2,366.3c0.1-0.1,0.1-0.2,0.2-0.3c0-0.1,0.1-0.2,0.1-0.2c0-0.1,0.1-0.2,0.1-0.3
		c0-0.1,0.1-0.2,0.1-0.2c0-0.1,0.1-0.3,0.1-0.4c0-0.1,0-0.1,0-0.2c0-0.2,0-0.4,0-0.5c0,0,0,0,0-0.1c0-0.2,0-0.4,0-0.6
		c0-0.1,0-0.1,0-0.2c0-0.1-0.1-0.3-0.1-0.4s-0.1-0.1-0.1-0.2c0-0.1-0.1-0.2-0.1-0.4c0,0,0,0,0-0.1c0-0.1-0.1-0.1-0.1-0.2
		c0-0.1-0.1-0.2-0.1-0.2L77,297.8c-0.8-1.3-2.1-2-3.7-2H-86.9c-1.5,0-2.9,0.8-3.7,2l-38.2,64.1c0,0.1-0.1,0.1-0.1,0.2
		c0,0.1-0.1,0.1-0.1,0.2c0,0,0,0,0,0.1c-0.1,0.1-0.1,0.2-0.1,0.4c0,0.1-0.1,0.1-0.1,0.2c0,0.1-0.1,0.3-0.1,0.4c0,0.1,0,0.1,0,0.2
		c0,0.2,0,0.4,0,0.6c0,0,0,0,0,0.1c0,0.2,0,0.4,0,0.5c0,0.1,0,0.1,0,0.2c0,0.1,0,0.3,0.1,0.4c0,0.1,0.1,0.2,0.1,0.2
		c0,0.1,0.1,0.2,0.1,0.3c0,0.1,0.1,0.2,0.1,0.2c0,0.1,0.1,0.2,0.1,0.2s0,0,0,0.1c0,0.1,0.1,0.2,0.1,0.2c0.1,0.1,0.1,0.2,0.2,0.3
		c0,0,0,0.1,0.1,0.1L-23,492.5c1.6,1.9,4.2,2,6,0.5c1.9-1.6,2-4.2,0.5-6L-116,368.3h47.5l47,112.6L-50,447c-1.6-1.9-4.2-2-6-0.5
		c-1.9,1.6-2,4.2-0.5,6l46.4,55.4l0,0l0,0c0,0,0,0,0,0.1c0.1,0.1,0.2,0.2,0.2,0.2l0.1,0.1l0,0l0,0c0.1,0.1,0.1,0.1,0.2,0.2
		c0,0,0.1,0,0.1,0.1l0.1,0.1c0,0,0.1,0,0.1,0.1c0,0,0.1,0,0.1,0.1l0,0c0.1,0.1,0.2,0.1,0.3,0.2h0.1h0.1c0.1,0,0.1,0,0.2,0.1
		c0.1,0,0.2,0.1,0.3,0.1h0.1c0.1,0,0.1,0,0.2,0c0.1,0,0.2,0,0.3,0.1h0.1h0.1c0.2,0,0.3,0,0.5,0l0,0l0,0l0,0l0,0l0,0l0,0
		c0.2,0,0.3,0,0.5,0h0.1h0.1c0.1,0,0.2,0,0.3-0.1c0.1,0,0.1,0,0.2,0h0.1c0.1,0,0.2-0.1,0.3-0.1c0,0,0.1,0,0.1-0.1h0.1h0.1
		c0.1-0.1,0.2-0.1,0.3-0.2l0,0c0,0,0.1,0,0.1-0.1c0,0,0.1,0,0.1-0.1l0.1-0.1c0,0,0.1,0,0.1-0.1c0.1-0.1,0.1-0.1,0.2-0.2l0,0l0,0
		l0.1-0.1c0.1-0.1,0.2-0.2,0.2-0.3c0,0,0,0,0-0.1l0,0l0,0l118.2-140.9c0,0,0-0.1,0.1-0.1c0.1-0.1,0.1-0.2,0.2-0.3
		C115.1,366.5,115.2,366.4,115.2,366.3z M104,359.9H54.8l-1-2.1l-24.7-53.4H71L104,359.9z M-117.5,359.9l33.1-55.5h41.8L-68,359.6
		c-1,2.1-0.1,4.7,2,5.7c2.1,1,4.7,0.1,5.7-2l27.1-58.8h53L45.5,360H-58.9l9.6-20.8c0.3-0.7,0.4-1.4,0.4-2c-0.1-1.5-1-2.9-2.4-3.6
		c-0.3-0.1-0.6-0.2-0.9-0.3c-1.8-0.4-3.6,0.4-4.6,1.9c-0.1,0.1-0.1,0.3-0.2,0.4L-68.3,360L-117.5,359.9L-117.5,359.9z M8,481
		l46.5-111.9c0.9-2.1-0.1-4.7-2.3-5.6c-2.1-0.9-4.7,0.1-5.6,2.3L-6.8,494.1l-52.4-125.6H45.7l-7.9,18.9c-0.9,2.1,0.1,4.7,2.3,5.6
		c2.1,0.9,4.7-0.1,5.6-2.3l9.3-22.2h47.5L8,481z"/>
</g>
</svg>
