<?xml version="1.0" encoding="utf-8"?>
<!-- Generator: Adobe Illustrator 19.1.0, SVG Export Plug-In . SVG Version: 6.00 Build 0)  -->
<svg version="1.1" id="Layer_1" xmlns="http://www.w3.org/2000/svg" xmlns:xlink="http://www.w3.org/1999/xlink" x="0px" y="0px"
	 viewBox="-255 184.6 512 400.8" style="enable-background:new -255 184.6 512 400.8;" xml:space="preserve">
<g>
	<path style="fill:#79439E;" d="M231.9,295.2h-461.8c-9.4,0-17.1-7.7-17.1-17.1v-68.4c0-9.4,7.7-17.1,17.1-17.1h461.8
		c9.4,0,17.1,7.7,17.1,17.1v68.4C249,287.6,241.3,295.2,231.9,295.2z"/>
	<path style="fill:#5C2F79;" d="M240.4,295.2H9.6c-4.7,0-8.6-7.7-8.6-17.1v-68.4c0-9.4,3.8-17.1,8.6-17.1h230.9
		c4.7,0,8.6,7.7,8.6,17.1v68.4C249,287.6,245.2,295.2,240.4,295.2z"/>
	<polyline style="fill:#FFEAB5;" points="172,243.9 172,560.3 137.8,577.4 103.6,560.3 69.3,577.4 35.1,560.3 0.9,577.4 
		-33.3,560.3 -67.5,577.4 -101.6,560.3 -135.8,577.4 -170,560.3 -170,243.9 	"/>
	<polyline style="fill:#FFDB8A;" points="172.9,243.9 172.9,560.3 138.7,577.4 104.4,560.3 70.2,577.4 36,560.3 1.8,577.4 
		1.9,243.9 	"/>
	<path d="M231.9,184.6h-461.8c-13.9,0-25.1,11.3-25.1,25.1v68.4c0,13.9,11.3,25.1,25.1,25.1h51.8v257.1c0,3,1.7,5.8,4.4,7.2
		l34.2,17.1c2.3,1.1,4.9,1.1,7.2,0l30.6-15.3l30.6,15.3c2.3,1.1,4.9,1.1,7.2,0l30.6-15.3l30.6,15.3c2.3,1.1,4.9,1.1,7.2,0l30.6-15.3
		l30.6,15.3c1.1,0.6,2.4,0.8,3.6,0.8c1.2,0,2.5-0.3,3.6-0.8l30.7-15.3l30.7,15.3c2.3,1.1,4.9,1.1,7.2,0l34.2-17.1
		c2.7-1.4,4.4-4.1,4.4-7.2V303.2h51.8c13.9,0,25.1-11.3,25.1-25.1v-68.4C257,195.9,245.7,184.6,231.9,184.6z M137.8,568.4
		l-30.7-15.3c-2.3-1.1-4.9-1.1-7.2,0l-30.7,15.3l-30.6-15.3c-2.3-1.1-4.9-1.1-7.2,0L0.9,568.4l-30.6-15.3c-2.3-1.1-4.9-1.1-7.2,0
		l-30.6,15.3l-30.6-15.3c-2.3-1.1-4.9-1.1-7.2,0l-30.6,15.3l-26.2-13.1V251.9h326v303.4L137.8,568.4z M241,278.1
		c0,5-4.1,9.1-9.1,9.1H180v-35.3h17.6c4.4,0,8-3.6,8-8s-3.6-8-8-8h-393.4c-4.4,0-8,3.6-8,8s3.6,8,8,8h17.6v35.3h-51.8
		c-5,0-9.1-4.1-9.1-9.1v-68.4c0-5,4.1-9.1,9.1-9.1h461.8c5,0,9.1,4.1,9.1,9.1L241,278.1L241,278.1z"/>
	<g>
		<g>
			<g>
				<g>
					<rect x="-75.9" y="332" style="fill:#5C2F79;" width="14" height="14"/>
				</g>
			</g>
			<g>
				<g>
					<path style="fill:#5C2F79;" d="M36.9,302.9V332H15.1v14h21.7v15.1H15.1v14h21.7h6.5h22.4v21.3h14V375H109v-72.1H36.9z
						 M95,361.1H50.8v-44.2H95V361.1z"/>
				</g>
			</g>
			<g>
				<g>
					<rect x="66" y="332" style="fill:#5C2F79;" width="14" height="14"/>
				</g>
			</g>
			<g>
				<g>
					<rect x="-75.9" y="473.9" style="fill:#5C2F79;" width="14" height="14"/>
				</g>
			</g>
			<g>
				<g>
					<rect x="66" y="473.9" style="fill:#5C2F79;" width="14" height="14"/>
				</g>
			</g>
			<g>
				<g>
					<path style="fill:#5C2F79;" d="M-32.9,332v-29.1H-105V375h29.1v21.3h14V375h29.1V346h21.3v-14H-32.9z M-46.8,361.1H-91v-44.2
						h44.2V361.1z"/>
				</g>
			</g>
			<g>
				<g>
					<rect x="-11.6" y="430.9" style="fill:#5C2F79;" width="26.7" height="14"/>
				</g>
			</g>
			<g>
				<g>
					<path style="fill:#5C2F79;" d="M-18.5,451.8v22.1h-14.3v-29.1H-62v-14.1h22.1v-14h-36.1v28.1H-105v72.1h72.1v-29.1h28.3v-36.1
						H-18.5z M-46.8,503H-91v-44.2h44.2V503z"/>
				</g>
			</g>
			<g>
				<g>
					<path style="fill:#5C2F79;" d="M79.8,444.8v-21.1h-14v21.1h-29v29.1H8.1v36.1h14v-22.1h14.8v29.1H109v-72.1H79.8z M95,503H50.8
						v-44.2H95V503z"/>
				</g>
			</g>
			<g>
				<g>
					<polygon style="fill:#5C2F79;" points="-18.5,368.1 -18.5,389.4 -39.8,389.4 -39.8,403.3 -4.6,403.3 -4.6,368.1 					"/>
				</g>
			</g>
			<g>
				<g>
					<polygon style="fill:#5C2F79;" points="8.1,386.2 8.1,421.5 22.1,421.5 22.1,400.2 43.4,400.2 43.4,386.2 					"/>
				</g>
			</g>
		</g>
	</g>
</g>
</svg>
