<?xml version="1.0" encoding="utf-8"?>
<!-- Generator: Adobe Illustrator 19.1.0, SVG Export Plug-In . SVG Version: 6.00 Build 0)  -->
<svg version="1.1" id="Layer_1" xmlns="http://www.w3.org/2000/svg" xmlns:xlink="http://www.w3.org/1999/xlink" x="0px" y="0px"
	 viewBox="-255 198 512 400" style="enable-background:new -255 129 512 512;" xml:space="preserve">
<style type="text/css">
	.st0{fill:#79439E;}
	.st1{fill:#5C2F79;}
	.st2{fill:#FFEAB5;}
	.st3{fill:#FFDB8A;}
</style>
<path class="st0" d="M231.9,308.1h-461.8c-9.4,0-17.1-7.7-17.1-17.1v-68.4c0-9.4,7.7-17.1,17.1-17.1h461.8c9.4,0,17.1,7.7,17.1,17.1
	V291C249,300.4,241.3,308.1,231.9,308.1z"/>
<path class="st1" d="M240.4,308.1H9.6c-4.7,0-8.6-7.7-8.6-17.1v-68.4c0-9.4,3.8-17.1,8.6-17.1h230.9c4.7,0,8.6,7.7,8.6,17.1V291
	C249,300.4,245.2,308.1,240.4,308.1z"/>
<polyline class="st2" points="172,256.8 172,573.2 137.8,590.3 103.6,573.2 69.3,590.3 35.1,573.2 0.9,590.3 -33.3,573.2
	-67.5,590.3 -101.6,573.2 -135.8,590.3 -170,573.2 -170,256.8 "/>
<polyline class="st3" points="172.9,256.8 172.9,573.2 138.7,590.3 104.4,573.2 70.2,590.3 36,573.2 1.8,590.3 1.9,256.8 "/>
<path d="M231.9,197.4h-461.8c-13.9,0-25.1,11.3-25.1,25.1V291c0,13.9,11.3,25.1,25.1,25.1h51.8v257.1c0,3,1.7,5.8,4.4,7.2l34.2,17.1
	c2.3,1.1,4.9,1.1,7.2,0l30.6-15.3l30.6,15.3c2.3,1.1,4.9,1.1,7.2,0l30.6-15.3l30.6,15.3c2.3,1.1,4.9,1.1,7.2,0l30.6-15.3l30.6,15.3
	c1.1,0.6,2.4,0.8,3.6,0.8c1.2,0,2.5-0.3,3.6-0.8l30.7-15.3l30.7,15.3c2.3,1.1,4.9,1.1,7.2,0l34.2-17.1c2.7-1.4,4.4-4.1,4.4-7.2
	V316.1h51.8c13.9,0,25.1-11.3,25.1-25.1v-68.4C257,208.7,245.7,197.4,231.9,197.4z M137.8,581.3L107.2,566c-2.3-1.1-4.9-1.1-7.2,0
	l-30.7,15.3L38.7,566c-2.3-1.1-4.9-1.1-7.2,0L0.9,581.3L-29.7,566c-2.3-1.1-4.9-1.1-7.2,0l-30.6,15.3L-98.1,566
	c-2.3-1.1-4.9-1.1-7.2,0l-30.6,15.3l-26.2-13.1V264.8h326v303.4L137.8,581.3z M241,291c0,5-4.1,9.1-9.1,9.1H180v-35.3h17.6
	c4.4,0,8-3.6,8-8c0-4.4-3.6-8-8-8h-393.4c-4.4,0-8,3.6-8,8c0,4.4,3.6,8,8,8h17.6v35.3h-51.8c-5,0-9.1-4.1-9.1-9.1v-68.4
	c0-5,4.1-9.1,9.1-9.1h461.8c5,0,9.1,4.1,9.1,9.1L241,291L241,291z"/>
<g>
	<g>
		<g>
			<g>
				<rect x="-75.9" y="344.9" class="st1" width="14" height="14"/>
			</g>
		</g>
		<g>
			<g>
				<path class="st1" d="M36.9,315.8v29.1H15.1v14h21.7v15.1H15.1v14h21.7h6.5h22.4v21.3h14v-21.3H109v-72.1H36.9z M95,373.9H50.8
					v-44.2H95V373.9z"/>
			</g>
		</g>
		<g>
			<g>
				<rect x="66" y="344.9" class="st1" width="14" height="14"/>
			</g>
		</g>
		<g>
			<g>
				<rect x="-75.9" y="486.7" class="st1" width="14" height="14"/>
			</g>
		</g>
		<g>
			<g>
				<rect x="66" y="486.7" class="st1" width="14" height="14"/>
			</g>
		</g>
		<g>
			<g>
				<path class="st1" d="M-32.9,344.9v-29.1H-105v72.1h29.1v21.3h14v-21.3h29.1v-29.1h21.3v-14H-32.9z M-46.8,373.9H-91v-44.2h44.2
					V373.9z"/>
			</g>
		</g>
		<g>
			<g>
				<rect x="-11.6" y="443.7" class="st1" width="26.7" height="14"/>
			</g>
		</g>
		<g>
			<g>
				<path class="st1" d="M-18.5,464.6v22.1h-14.3v-29.1H-62v-14.1h22.1v-14h-36.1v28.1H-105v72.1h72.1v-29.1h28.3v-36.1H-18.5z
					 M-46.8,515.8H-91v-44.2h44.2V515.8z"/>
			</g>
		</g>
		<g>
			<g>
				<path class="st1" d="M79.8,457.6v-21.1h-14v21.1h-29v29.1H8.1v36.1h14v-22.1h14.8v29.1H109v-72.1H79.8z M95,515.8H50.8v-44.2H95
					V515.8z"/>
			</g>
		</g>
		<g>
			<g>
				<polygon class="st1" points="-18.5,380.9 -18.5,402.2 -39.8,402.2 -39.8,416.2 -4.6,416.2 -4.6,380.9 				"/>
			</g>
		</g>
		<g>
			<g>
				<polygon class="st1" points="8.1,399.1 8.1,434.4 22.1,434.4 22.1,413 43.4,413 43.4,399.1 				"/>
			</g>
		</g>
	</g>
</g>
</svg>
