<?xml version="1.0" encoding="utf-8"?>
<!-- Generator: Adobe Illustrator 19.1.0, SVG Export Plug-In . SVG Version: 6.00 Build 0)  -->
<svg version="1.1" id="Layer_1" xmlns="http://www.w3.org/2000/svg" xmlns:xlink="http://www.w3.org/1999/xlink" x="0px" y="0px"
	 viewBox="-227.8 138.4 457.5 505" style="enable-background:new -227.8 138.4 457.5 505;" xml:space="preserve">
<g>
	
		<polygon style="fill:#79439E;stroke:#000000;stroke-width:15;stroke-linecap:round;stroke-linejoin:round;stroke-miterlimit:10;" points="
		1,145.9 -220.3,227.5 -166,529.8 1,635.7 168,529.8 222.3,227.5 	"/>
	
		<polyline style="fill:#5C2F79;stroke:#000000;stroke-width:15;stroke-linecap:round;stroke-linejoin:round;stroke-miterlimit:10;" points="
		1,635.9 168,530 222.3,227.7 1,146.1 	"/>
	
		<polygon style="fill:#FFEAB5;stroke:#000000;stroke-width:15;stroke-linecap:round;stroke-linejoin:round;stroke-miterlimit:10;" points="
		1,181.6 -182.1,250 -136.6,507.6 1,593 138.6,507.6 184.1,250 	"/>
	
		<polyline style="fill:#FFDB8A;stroke:#000000;stroke-width:15;stroke-linecap:round;stroke-linejoin:round;stroke-miterlimit:10;" points="
		1,593.6 138.6,508.1 184.1,250.5 1,182.1 	"/>
	<rect x="-23.3" y="222.8" style="fill:#FFEAB5;" width="47.1" height="52.9"/>
	<rect x="0.3" y="222.8" style="fill:#FFDB8A;" width="23.6" height="52.9"/>
	<path style="fill:#79439E;" d="M55.3,356.1c0-21.4-13.5-39.8-32.9-47.9c0,0-0.1,0-0.1,0v-27.1h-44v27.1c-19.4,8.1-33,26.5-33,48
		l29.2,41.9l-29.2,41.9v62.8c0,11.5,9.9,20.9,22,20.9h52.8h13.2c12.1,0,22-9.4,22-20.9v-62.8L43.7,398L55.3,356.1z"/>
	<path style="fill:#5C2F79;" d="M55.9,356.1c0-21.4-13.5-39.8-32.9-47.9c0,0-0.1,0-0.1,0v-27.1H0.3v242.6h33.6
		c12.1,0,22-9.4,22-20.9v-62.8L44.4,398L55.9,356.1z"/>
	<polygon style="fill:#FFDB8A;" points="52.9,356.1 52.9,439.9 30.9,439.9 8.9,398 30.9,356.1 	"/>
	<rect x="-57.1" y="356.1" style="fill:#FFEAB5;" width="88" height="83.8"/>
	<path style="stroke:#000000;stroke-width:5;stroke-miterlimit:10;" d="M28.4,305.2v-56.5v-10.1v-16.4c0-3-2.5-5.3-5.6-5.3h-44.9
		c-3.1,0-5.6,2.4-5.6,5.3v16.4v10.1v56.5c-20.6,10-33.7,30.2-33.7,52.4v80.2v5.3v64.2c0,14.7,12.6,26.7,28.1,26.7H34
		c15.5,0,28.1-12,28.1-26.7V357.6C62.1,335.4,49,315.2,28.4,305.2z M-20,313.5c2-0.9,3.4-2.8,3.4-4.9V293v-6.7v-10.7V274v-22.8V249
		v-12v-9.4h33.7v9.4v1.3V249v2.2V274v1.6v10.7v6.7v15.6c0,2.1,1.3,4.1,3.4,4.9c16.7,6.9,28,21.8,30,38.8H-50
		C-48,335.3-36.7,320.4-20,313.5z M50.8,507.4c0,8.8-7.6,16-16.9,16h-67.4c-9.3,0-16.9-7.2-16.9-16v-58.8H50.8V507.4z M50.8,437.8
		H-50.3V363H50.8V437.8z"/>
	<rect x="-25.7" y="275.7" width="49.6" height="10.7"/>
</g>
</svg>
