<?xml version="1.0" encoding="utf-8"?>
<!-- Generator: Adobe Illustrator 19.1.0, SVG Export Plug-In . SVG Version: 6.00 Build 0)  -->
<svg version="1.1" id="Layer_1" xmlns="http://www.w3.org/2000/svg" xmlns:xlink="http://www.w3.org/1999/xlink" x="0px" y="0px"
	 viewBox="-227 129 457 505" style="enable-background:new -255 129 512 512;" xml:space="preserve">
<style type="text/css">
	.st0{fill:#79439E;stroke:#000000;stroke-width:15;stroke-linecap:round;stroke-linejoin:round;stroke-miterlimit:10;}
	.st1{fill:#5C2F79;stroke:#000000;stroke-width:15;stroke-linecap:round;stroke-linejoin:round;stroke-miterlimit:10;}
	.st2{fill:#FFEAB5;stroke:#000000;stroke-width:15;stroke-linecap:round;stroke-linejoin:round;stroke-miterlimit:10;}
	.st3{fill:#FFDB8A;stroke:#000000;stroke-width:15;stroke-linecap:round;stroke-linejoin:round;stroke-miterlimit:10;}
	.st4{fill:#FFEAB5;}
	.st5{fill:#FFDB8A;}
	.st6{fill:#79439E;}
	.st7{fill:#5C2F79;}
	.st8{stroke:#000000;stroke-width:5;stroke-miterlimit:10;}
</style>
<polygon class="st0" points="1,137.4 -220.3,219 -166,521.3 1,627.2 168,521.3 222.3,219 "/>
<polyline class="st1" points="1,627.4 168,521.5 222.3,219.2 1,137.6 "/>
<polygon class="st2" points="1,173.1 -182.1,241.5 -136.6,499.1 1,584.5 138.6,499.1 184.1,241.5 "/>
<polyline class="st3" points="1,585.1 138.6,499.6 184.1,242 1,173.6 "/>
<g>
	<rect x="-23.3" y="214.3" class="st4" width="47.1" height="52.9"/>
	<rect x="0.3" y="214.3" class="st5" width="23.6" height="52.9"/>
	<path class="st6" d="M55.3,347.6c0-21.4-13.5-39.8-32.9-47.9c0,0-0.1,0-0.1,0v-27.1h-44v27.1c-19.4,8.1-33,26.5-33,48l29.2,41.9
		l-29.2,41.9v62.8c0,11.5,9.9,20.9,22,20.9h52.8h13.2c12.1,0,22-9.4,22-20.9v-62.8l-11.5-41.9L55.3,347.6z"/>
	<path class="st7" d="M55.9,347.6c0-21.4-13.5-39.8-32.9-47.9c0,0-0.1,0-0.1,0v-27.1H0.3v242.6h33.6c12.1,0,22-9.4,22-20.9v-62.8
		l-11.5-41.9L55.9,347.6z"/>
	<polygon class="st5" points="52.9,347.6 52.9,431.4 30.9,431.4 8.9,389.5 30.9,347.6 	"/>
	<rect x="-57.1" y="347.6" class="st4" width="88" height="83.8"/>
	<path class="st8" d="M28.4,296.7v-56.5v-10.1v-16.4c0-3-2.5-5.3-5.6-5.3h-44.9c-3.1,0-5.6,2.4-5.6,5.3v16.4v10.1v56.5
		c-20.6,10-33.7,30.2-33.7,52.4v80.2v5.3v64.2c0,14.7,12.6,26.7,28.1,26.7H34c15.5,0,28.1-12,28.1-26.7V349.1
		C62.1,326.9,49,306.7,28.4,296.7z M-20,305c2-0.9,3.4-2.8,3.4-4.9v-15.6v-6.7v-10.7v-1.6v-22.8v-2.2v-12v-9.4h33.7v9.4v1.3v10.7
		v2.2v22.8v1.6v10.7v6.7v15.6c0,2.1,1.3,4.1,3.4,4.9c16.7,6.9,28,21.8,30,38.8H-50C-48,326.8-36.7,311.9-20,305z M50.8,498.9
		c0,8.8-7.6,16-16.9,16h-67.4c-9.3,0-16.9-7.2-16.9-16V440H50.8V498.9z M50.8,429.3H-50.3v-74.9H50.8V429.3z"/>
	<rect x="-25.7" y="267.2" width="49.6" height="10.7"/>
</g>
</svg>
