<?xml version="1.0" encoding="utf-8"?>
<!-- Generator: Adobe Illustrator 19.1.0, SVG Export Plug-In . SVG Version: 6.00 Build 0)  -->
<svg version="1.1" id="Layer_1" xmlns="http://www.w3.org/2000/svg" xmlns:xlink="http://www.w3.org/1999/xlink" x="0px" y="0px"
	 viewBox="-223 25 535.1 512" style="enable-background:new -223 25 512 512;" xml:space="preserve">
<g>
	<defs>
		<rect id="XMLID_1_" x="-229" y="25" width="535.1" height="512"/>
	</defs>
	<clipPath id="XMLID_3_">
		<use xlink:href="#XMLID_1_"  style="overflow:visible;"/>
	</clipPath>
	<g style="clip-path:url(#XMLID_3_);">
		<path style="fill:#79439E;" d="M256.4,503.2h-429.7c-31.6,0-51.4-34.2-35.6-61.6L5.9,69.5c15.8-27.4,55.3-27.4,71.1,0l214.9,372.1
			C307.7,468.9,288,503.2,256.4,503.2z"/>
		<path style="fill:#592B76;" d="M291.9,441.5L77.1,69.4c-7.3-12.7-20.5-20.5-35.6-20.5v454.3h214.9
			C288,503.2,307.8,468.9,291.9,441.5z"/>
		<path style="fill:#F9CF00;" d="M41.5,342.3c-16,0-29-10.8-29-24.1V180.1c0-13.3,13-24.1,29-24.1s29,10.8,29,24.1v138.2
			C70.5,331.5,57.5,342.3,41.5,342.3z"/>
		<path style="fill:#F9CF00;" d="M41.5,436.2c-16,0-29-10.8-29-24.1v-14.4c0-13.3,13-24.1,29-24.1s29,10.8,29,24.1v14.4
			C70.5,425.4,57.5,436.2,41.5,436.2z"/>
		<g>
			<path style="fill:#F99830;" d="M41.5,156L41.5,156v186.4l0,0c16,0,29-10.8,29-24.1V180.1C70.5,166.8,57.5,156,41.5,156z"/>
			<path style="fill:#F99830;" d="M41.5,373.6L41.5,373.6v62.6l0,0c16,0,29-10.8,29-24.1v-14.4C70.5,384.4,57.5,373.6,41.5,373.6z"
				/>
		</g>
		<path d="M256.4,511.7h-429.7c-17.9,0-34-9.3-42.9-24.8c-9-15.5-9-34.1,0-49.6L-1.4,65.2c9-15.5,25-24.8,42.9-24.8
			s34,9.3,42.9,24.8l214.9,372.1c9,15.5,9,34.1,0,49.6C290.3,502.4,274.3,511.7,256.4,511.7z M41.5,57.3c-11.8,0-22.3,6.1-28.2,16.3
			l-214.9,372.1c-5.9,10.2-5.9,22.4,0,32.6c5.9,10.2,16.4,16.3,28.2,16.3h429.7c11.8,0,22.3-6.1,28.2-16.3c5.9-10.2,5.9-22.4,0-32.6
			L69.7,73.6C63.8,63.4,53.3,57.3,41.5,57.3z"/>
		<path d="M41.5,350.8C20.8,350.8,4,336.2,4,318.2V180.1c0-18,16.8-32.6,37.5-32.6S79,162.1,79,180.1v138.2
			C79,336.2,62.2,350.8,41.5,350.8z M41.5,164.5c-11.1,0-20.5,7.1-20.5,15.6v138.2c0,8.5,9.4,15.6,20.5,15.6S62,326.8,62,318.3
			V180.1C62,171.6,52.6,164.5,41.5,164.5z"/>
		<path d="M41.5,444.7C20.8,444.7,4,430.1,4,412.1v-14.4c0-18,16.8-32.6,37.5-32.6S79,379.7,79,397.7v14.4
			C79,430.1,62.2,444.7,41.5,444.7z M41.5,382.1c-11.1,0-20.5,7.1-20.5,15.6v14.4c0,8.5,9.4,15.6,20.5,15.6S62,420.6,62,412.1v-14.4
			C62,389.3,52.6,382.1,41.5,382.1z"/>
	</g>
</g>
</svg>
